#!OML:ASF C:\Vicon Data\Big\jianyuan-13\jianyuan\Session 1\Capture.male.ASF
:FULLY-SPECIFIED
:DEGREES
139
root -8.136465 17.347327 -8.806558 9.208751 -3.120151 0.313333
lowerback -15.042691 3.873038 -2.007942 
upperback -0.925719 5.632966 -2.019894 
thorax 7.446632 2.702217 0.171288 
lowerneck -5.555673 -3.496694 3.686224 
upperneck -3.775237 -4.886111 -2.485563 
head -0.398493 -2.488477 -1.441368 
rclavicle 0.000000 0.000000 
rhumerus -26.926223 -7.596620 -93.089735 
rradius 37.019222 
rwrist 23.141395 
rhand -18.155697 -19.479927 
rfingers 0.000000 
rthumb 8.120098 -49.303957 
lclavicle 0.000000 0.000000 
lhumerus -76.426014 43.057290 23.985816 
lradius 21.439944 
lwrist -75.198654 
lhand -20.053200 2.706561 
lfingers 0.000000 
lthumb 6.288446 32.593194 
rfemur 2.277272 0.127179 19.889922 
rtibia 42.629834 
rfoot 1.210219 1.395273 
rtoes -36.359390 
lfemur -35.932548 0.549777 -20.001392 
ltibia 24.570533 
lfoot -1.968777 7.928192 
ltoes -28.624878 
140
root -8.116480 17.349935 -8.704941 9.041354 -2.716426 0.381013
lowerback -14.930035 3.826299 -2.039447 
upperback -0.868229 5.576154 -2.031892 
thorax 7.444542 2.674082 0.158558 
lowerneck -5.467987 -3.599671 3.725245 
upperneck -3.854031 -5.022944 -2.471805 
head -0.442808 -2.557070 -1.441863 
rclavicle 0.000000 0.000000 
rhumerus -27.534673 -8.454802 -92.701379 
rradius 36.430220 
rwrist 23.372714 
rhand -18.088365 -19.588425 
rfingers 0.000000 
rthumb 8.185071 -49.409881 
lclavicle 0.000000 0.000000 
lhumerus -76.160419 43.670693 23.968143 
lradius 21.365375 
lwrist -76.080260 
lhand -20.000106 2.722410 
lfingers 0.000000 
lthumb 6.339746 32.607539 
rfemur 1.666543 -0.242663 19.779144 
rtibia 44.249646 
rfoot 2.149284 1.161027 
rtoes -37.053844 
lfemur -35.678470 0.394691 -20.247306 
ltibia 24.979444 
lfoot -1.784792 7.539228 
ltoes -28.011252 
141
root -8.097442 17.354005 -8.600766 8.889684 -2.382154 0.522765
lowerback -14.845810 3.777112 -2.195215 
upperback -0.801309 5.538586 -2.051222 
thorax 7.457174 2.650717 0.213449 
lowerneck -5.438386 -3.706285 3.764476 
upperneck -3.884616 -5.167102 -2.518509 
head -0.464439 -2.629554 -1.463462 
rclavicle 0.000000 0.000000 
rhumerus -28.179490 -9.302467 -92.294009 
rradius 35.821330 
rwrist 23.902619 
rhand -18.042989 -19.535226 
rfingers 0.000000 
rthumb 8.228848 -49.354930 
lclavicle 0.000000 0.000000 
lhumerus -76.013197 44.403425 23.786262 
lradius 21.264064 
lwrist -77.300395 
lhand -20.076981 2.758424 
lfingers 0.000000 
lthumb 6.265521 32.645734 
rfemur 0.944032 -0.510145 19.608960 
rtibia 45.989896 
rfoot 3.182591 0.790580 
rtoes -38.442692 
lfemur -35.422344 0.115667 -20.520760 
ltibia 25.398703 
lfoot -1.632648 7.420127 
ltoes -27.144121 
142
root -8.075810 17.361852 -8.494727 8.740083 -2.079859 0.609161
lowerback -14.749499 3.731927 -2.295124 
upperback -0.757612 5.491987 -2.028073 
thorax 7.439148 2.624747 0.278666 
lowerneck -5.273943 -3.779803 3.755519 
upperneck -3.963984 -5.261615 -2.594013 
head -0.521608 -2.675965 -1.481805 
rclavicle 0.000000 0.000000 
rhumerus -28.860433 -9.877098 -91.872196 
rradius 35.150088 
rwrist 24.292987 
rhand -18.104501 -19.662253 
rfingers 0.000000 
rthumb 8.169462 -49.484377 
lclavicle 0.000000 0.000000 
lhumerus -75.775762 45.086880 23.827864 
lradius 21.067748 
lwrist -78.593867 
lhand -20.483135 3.044860 
lfingers 0.000000 
lthumb 5.873356 32.943414 
rfemur 0.100430 -0.770616 19.472893 
rtibia 47.833390 
rfoot 4.315737 0.417410 
rtoes -39.841596 
lfemur -35.131837 -0.137893 -20.742098 
ltibia 25.789513 
lfoot -1.510600 7.263122 
ltoes -26.200812 
143
root -8.052203 17.367360 -8.388026 8.543881 -1.741171 0.790418
lowerback -14.587982 3.663843 -2.434073 
upperback -0.700411 5.423656 -2.057713 
thorax 7.401541 2.588373 0.301495 
lowerneck -5.107727 -3.879958 3.619861 
upperneck -4.011170 -5.382315 -2.517896 
head -0.561895 -2.733653 -1.430367 
rclavicle 0.000000 0.000000 
rhumerus -29.594458 -10.517602 -91.480044 
rradius 34.705398 
rwrist 24.432410 
rhand -17.953039 -20.139789 
rfingers 0.000000 
rthumb 8.315649 -49.956096 
lclavicle 0.000000 0.000000 
lhumerus -75.610187 45.914645 23.681642 
lradius 20.883509 
lwrist -79.948805 
lhand -20.672236 3.165525 
lfingers 0.000000 
lthumb 5.690772 33.069139 
rfemur -0.820097 -1.019239 19.242728 
rtibia 49.807164 
rfoot 5.521211 -0.136446 
rtoes -40.347059 
lfemur -34.760584 -0.520157 -21.036476 
ltibia 26.152256 
lfoot -1.585267 7.152203 
ltoes -25.471957 
144
root -8.028708 17.372132 -8.274331 8.332725 -1.488928 0.977894
lowerback -14.425619 3.620159 -2.626121 
upperback -0.645650 5.393664 -2.063286 
thorax 7.352997 2.568523 0.386971 
lowerneck -4.948607 -3.967247 3.488513 
upperneck -4.036138 -5.486504 -2.443719 
head -0.593425 -2.783141 -1.380685 
rclavicle 0.000000 0.000000 
rhumerus -30.372877 -10.975780 -91.018730 
rradius 34.154943 
rwrist 24.578325 
rhand -17.607069 -20.292584 
rfingers 0.000000 
rthumb 8.649544 -50.095344 
lclavicle 0.000000 0.000000 
lhumerus -75.085951 46.637869 24.101283 
lradius 20.742245 
lwrist -81.073769 
lhand -20.928528 3.545519 
lfingers 0.000000 
lthumb 5.443377 33.455627 
rfemur -1.859689 -1.155701 19.004160 
rtibia 51.908841 
rfoot 6.721423 -0.650674 
rtoes -40.544604 
lfemur -34.359010 -0.774534 -21.386106 
ltibia 26.539744 
lfoot -1.687427 6.899571 
ltoes -24.770585 
145
root -8.001312 17.378007 -8.152942 8.144039 -1.186780 1.132341
lowerback -14.272906 3.571388 -2.733827 
upperback -0.630649 5.341677 -2.071325 
thorax 7.275632 2.541750 0.417947 
lowerneck -4.756617 -4.065360 3.536592 
upperneck -4.001879 -5.614833 -2.512088 
head -0.622406 -2.846639 -1.406963 
rclavicle 0.000000 0.000000 
rhumerus -31.283326 -11.886593 -90.295895 
rradius 33.410052 
rwrist 25.656687 
rhand -17.328469 -19.952294 
rfingers 0.000000 
rthumb 8.918407 -49.743771 
lclavicle 0.000000 0.000000 
lhumerus -74.411841 47.326158 24.719923 
lradius 20.637752 
lwrist -81.303892 
lhand -20.785580 3.210348 
lfingers 0.000000 
lthumb 5.581357 33.116888 
rfemur -3.019104 -1.456613 18.764971 
rtibia 54.095999 
rfoot 7.850673 -1.286618 
rtoes -40.991524 
lfemur -33.950567 -1.131196 -21.691491 
ltibia 26.968551 
lfoot -1.957688 6.529072 
ltoes -23.302541 
146
root -7.976234 17.382478 -8.033297 7.911922 -0.964304 1.372760
lowerback -14.090767 3.520584 -2.956408 
upperback -0.562509 5.307133 -2.095890 
thorax 7.229897 2.518899 0.498819 
lowerneck -4.665702 -4.144949 3.589480 
upperneck -3.925974 -5.722003 -2.620752 
head -0.622576 -2.900022 -1.449643 
rclavicle 0.000000 0.000000 
rhumerus -32.065587 -12.572574 -89.713547 
rradius 32.737064 
rwrist 26.072170 
rhand -16.992085 -20.036932 
rfingers 0.000000 
rthumb 9.243021 -49.814275 
lclavicle 0.000000 0.000000 
lhumerus -73.465417 48.134196 25.712668 
lradius 20.576506 
lwrist -81.336561 
lhand -20.717206 3.264382 
lfingers 0.000000 
lthumb 5.647351 33.169111 
rfemur -4.260549 -1.704675 18.426958 
rtibia 56.314388 
rfoot 8.661642 -2.455974 
rtoes -40.108782 
lfemur -33.475579 -1.369093 -22.122062 
ltibia 27.405090 
lfoot -2.398026 6.241691 
ltoes -22.818841 
147
root -7.948540 17.387423 -7.912477 7.703519 -0.605262 1.625691
lowerback -13.945755 3.378045 -3.183531 
upperback -0.511504 5.150477 -2.103409 
thorax 7.187750 2.436106 0.578685 
lowerneck -4.442800 -4.164887 3.482239 
upperneck -3.901004 -5.736228 -2.563302 
head -0.647151 -2.904458 -1.407897 
rclavicle 0.000000 0.000000 
rhumerus -32.964674 -13.135566 -89.152545 
rradius 32.128337 
rwrist 27.046772 
rhand -16.817442 -20.114291 
rfingers 0.000000 
rthumb 9.411465 -49.884094 
lclavicle 0.000000 0.000000 
lhumerus -72.224727 48.747199 27.153487 
lradius 20.496703 
lwrist -81.012788 
lhand -20.465059 3.344513 
lfingers 0.000000 
lthumb 5.890803 33.242601 
rfemur -5.543196 -2.117203 18.113146 
rtibia 58.500586 
rfoot 8.675186 -3.920463 
rtoes -39.539280 
lfemur -32.997750 -1.737751 -22.538462 
ltibia 27.781107 
lfoot -2.811980 5.995950 
ltoes -22.804897 
148
root -7.935792 17.388292 -7.868338 7.595978 -0.430054 1.721895
lowerback -13.838038 3.308084 -3.231264 
upperback -0.501496 5.061981 -2.121290 
thorax 7.137994 2.393112 0.562699 
lowerneck -4.278103 -4.154863 3.483560 
upperneck -3.941697 -5.718879 -2.570829 
head -0.686938 -2.894903 -1.406014 
rclavicle 0.000000 0.000000 
rhumerus -33.376418 -13.321679 -88.954785 
rradius 32.028732 
rwrist 27.479550 
rhand -16.632140 -20.154387 
rfingers 0.000000 
rthumb 9.590289 -49.916021 
lclavicle 0.000000 0.000000 
lhumerus -71.787662 48.947856 27.651393 
lradius 20.526718 
lwrist -80.916892 
lhand -20.220597 3.157618 
lfingers 0.000000 
lthumb 6.126817 33.048955 
rfemur -5.993716 -2.458848 17.946559 
rtibia 59.320713 
rfoot 8.431182 -4.367466 
rtoes -39.617909 
lfemur -32.786374 -1.881919 -22.708583 
ltibia 27.906206 
lfoot -2.943169 5.868110 
ltoes -22.855540 
